<svg width="240" height="220" xmlns="http://www.w3.org/2000/svg" fill="none">

 <g>
  <title>Layer 1</title>
  <path id="svg_1" fill-opacity="0.7" fill="#303030" d="m181.381,174.958c2.483,-2.56 0.084,-6.624 -3.474,-6.349c-2.158,0.167 -4.339,0.252 -6.541,0.252c-46.212,0 -83.6743,-37.433 -83.6743,-83.609c0,-14.2022 3.5439,-27.5774 9.7963,-39.2908c1.6818,-3.1508 -1.09,-6.9779 -4.4322,-5.7132c-31.1534,11.788 -53.3058,41.9161 -53.3058,77.222c0,45.58 36.9203,82.53 82.464,82.53c23.21,0 44.181,-9.597 59.167,-25.042z"/>
  <path id="svg_2" fill="white" d="m147.438,64.7664c-0.4,-0.571 -0.918,-1.4159 -2.483,-3.6078c0.032,0.0326 -7.495,-9.6379 -7.495,-9.6379c-0.927,-1.1899 -0.692,-1.3883 0.513,-0.4509c0,0 9.602,7.4682 9.602,7.4682c2.153,1.5381 3.02,2.0785 3.599,2.484c0.571,-0.4003 1.416,-0.9183 3.608,-2.484c-0.033,0.0326 9.637,-7.4949 9.637,-7.4949c1.19,-0.9262 1.389,-0.6918 0.451,0.5135c0,0 -7.468,9.602 -7.468,9.602c-1.538,2.1533 -2.078,3.02 -2.484,3.5986c0.4,0.571 0.918,1.4159 2.484,3.6078c-0.033,-0.0326 7.495,9.6379 7.495,9.6379c0.926,1.1899 0.692,1.3883 -0.514,0.4508l-9.601,-7.4682c-2.154,-1.5381 -3.021,-2.0784 -3.599,-2.4839c-0.571,0.4003 -1.416,0.9183 -3.608,2.4839c0.033,-0.0326 -9.638,7.495 -9.638,7.495c-1.19,0.9261 -1.388,0.6918 -0.451,-0.5135l7.469,-9.602c1.538,-2.1533 2.078,-3.02 2.483,-3.5986z" clip-rule="evenodd" fill-rule="evenodd"/>
  <path id="svg_3" fill="white" d="m190.178,115.461c0.016,0.015 -3.493,-4.493 -3.493,-4.493c-0.435,-0.559 -0.328,-0.654 0.234,-0.217l4.483,3.486c1.005,0.718 1.409,0.971 1.68,1.16c0.266,-0.187 0.66,-0.429 1.684,-1.16c-0.016,0.016 4.492,-3.493 4.492,-3.493c0.559,-0.435 0.655,-0.328 0.217,0.235l-3.486,4.482c-0.718,1.005 -0.97,1.41 -1.16,1.68c0.187,0.266 0.429,0.661 1.16,1.684c-0.015,-0.015 3.494,4.492 3.494,4.492c0.435,0.559 0.328,0.655 -0.235,0.217l-4.482,-3.486c-1.006,-0.718 -1.41,-0.97 -1.68,-1.16c-0.267,0.187 -0.661,0.429 -1.684,1.16c0.015,-0.015 -4.493,3.494 -4.493,3.494c-0.559,0.435 -0.654,0.328 -0.217,-0.235l3.486,-4.482c0.718,-1.005 0.971,-1.41 1.16,-1.68c-0.187,-0.267 -0.429,-0.661 -1.16,-1.684z" clip-rule="evenodd" fill-rule="evenodd"/>
 </g>
</svg>